<?xml version="1.0" encoding="utf-8"?>
<!-- Generator: Adobe Illustrator 18.1.1, SVG Export Plug-In . SVG Version: 6.00 Build 0)  -->
<svg version="1.1" id="Layer_1" xmlns="http://www.w3.org/2000/svg" xmlns:xlink="http://www.w3.org/1999/xlink" x="0px" y="0px"
	 width="362px" height="362px" viewBox="0 0 362 362" style="enable-background:new 0 0 362 362;" xml:space="preserve">
<style type="text/css">
	.st0{fill:#FFFFFF;}
</style>
<path class="st0" d="M362,57.2C362,25.6,336.4,0,304.8,0H57.2C25.6,0,0,25.6,0,57.2v247.6C0,336.4,25.6,362,57.2,362h247.6
	c31.6,0,57.2-25.6,57.2-57.2V57.2z M337,302.3c0,19.2-15.5,34.7-34.7,34.7H58.7C39.5,337,24,321.5,24,302.3V58.7
	C24,39.5,39.5,24,58.7,24h243.6c19.2,0,34.7,15.5,34.7,34.7V302.3z"/>
<path class="st0" d="M162,146.1V174h-30v35h30v89h37c0,0,0-47,0-89h28.3l4.5-35H199c0-10,0-17.2,0-20.9c0-19.5,13.4-17.1,13.4-17.1
	H231v-32c0,0-3.3,0-32.2,0C162.8,104,162,146.1,162,146.1z"/>
</svg>
