<?xml version="1.0" encoding="utf-8"?>
<!-- Generator: Adobe Illustrator 18.1.1, SVG Export Plug-In . SVG Version: 6.00 Build 0)  -->
<svg version="1.1" id="Layer_1" xmlns="http://www.w3.org/2000/svg" xmlns:xlink="http://www.w3.org/1999/xlink" x="0px" y="0px"
	 width="362px" height="362px" viewBox="0 0 362 362" style="enable-background:new 0 0 362 362;" xml:space="preserve">
<style type="text/css">
	.st0{fill:#FFFFFF;}
</style>
<path class="st0" d="M362,57.2C362,25.6,336.4,0,304.8,0H57.2C25.6,0,0,25.6,0,57.2v247.6C0,336.4,25.6,362,57.2,362h247.6
	c31.6,0,57.2-25.6,57.2-57.2V57.2z M337,302.3c0,19.2-15.5,34.7-34.7,34.7H58.7C39.5,337,24,321.5,24,302.3V58.7
	C24,39.5,39.5,24,58.7,24h243.6c19.2,0,34.7,15.5,34.7,34.7V302.3z"/>
<g>
	<rect x="107.8" y="189.2" class="st0" width="32.3" height="107.7"/>
	<circle class="st0" cx="124" cy="155.1" r="19.7"/>
	<path class="st0" d="M229.6,186.1c-19.1,0-29.4,9.2-35.7,18.9v-15.8h-32v107.9h32v-48.4c0-6.7,1.1-13.4,3.3-19.7
		c0.7-2.1,1.4-3.7,2-4.3c3.4-3.9,4.9-7.9,15-7.8s17.5,5.5,18.1,16.9c0.7,11.5,0.5,64,0.5,64H266v-54.6
		C266,243.2,272.9,186.1,229.6,186.1z"/>
</g>
</svg>
