<?xml version="1.0" encoding="utf-8"?>
<!-- Generator: Adobe Illustrator 18.1.1, SVG Export Plug-In . SVG Version: 6.00 Build 0)  -->
<svg version="1.1" id="Layer_1" xmlns="http://www.w3.org/2000/svg" xmlns:xlink="http://www.w3.org/1999/xlink" x="0px" y="0px"
	 width="109px" height="109px" viewBox="0 0 109 109" style="enable-background:new 0 0 109 109;" xml:space="preserve">
<style type="text/css">
	.st0{fill:#FFFFFF;}
</style>
<path class="st0" d="M109,17.2C109,7.7,101.3,0,91.8,0H17.2C7.7,0,0,7.7,0,17.2v74.7c0,9.5,7.7,17.2,17.2,17.2h74.7
	c9.5,0,17.2-7.7,17.2-17.2V17.2z M101,90.6c0,5.8-4.7,10.4-10.4,10.4H17.4C11.7,101,7,96.3,7,90.6V17.4C7,11.7,11.7,7,17.4,7h73.2
	c5.8,0,10.4,4.7,10.4,10.4V90.6z"/>
<path class="st0" d="M48,43.5V52h-9v10h9v27h11c0,0,0-14,0-27h8.9l1.3-10H59c0-3,0-5.3,0-6.4c0-5.9,4.4-4.6,4.4-4.6H69V31
	c0,0-1,0-9.7,0C48.5,31,48,43.5,48,43.5z"/>
</svg>
