<?xml version="1.0" encoding="utf-8"?>
<!-- Generator: Adobe Illustrator 18.1.1, SVG Export Plug-In . SVG Version: 6.00 Build 0)  -->
<svg version="1.1" id="Layer_1" xmlns="http://www.w3.org/2000/svg" xmlns:xlink="http://www.w3.org/1999/xlink" x="0px" y="0px"
	 width="109px" height="109px" viewBox="0 0 109 109" style="enable-background:new 0 0 109 109;" xml:space="preserve">
<style type="text/css">
	.st0{fill:#FFFFFF;}
</style>
<g>
	<path class="st0" d="M109,17.2C109,7.7,101.3,0,91.8,0H17.2C7.7,0,0,7.7,0,17.2v74.7c0,9.5,7.7,17.2,17.2,17.2h74.7
		c9.5,0,17.2-7.7,17.2-17.2V17.2z M101,90.6c0,5.8-4.7,10.4-10.4,10.4H17.4C11.7,101,7,96.3,7,90.6V17.4C7,11.7,11.7,7,17.4,7h73.2
		c5.8,0,10.4,4.7,10.4,10.4V90.6z"/>
	<g>
		<g>
			<path class="st0" d="M39.4,37.4c2.4,0,4.5,0.2,6.4,0.6c1.9,0.4,3.6,1.1,5,2c1.4,0.9,2.5,2.2,3.2,3.8c0.8,1.6,1.1,3.5,1.1,5.8
				c0,2.5-0.6,4.6-1.7,6.2c-1.1,1.7-2.8,3-5,4.1c3,0.9,5.3,2.4,6.8,4.6c1.5,2.2,2.2,4.8,2.2,7.9c0,2.5-0.5,4.6-1.5,6.5
				c-1,1.8-2.3,3.3-3.9,4.5c-1.6,1.2-3.5,2-5.6,2.6c-2.1,0.6-4.3,0.8-6.5,0.8H16.2V37.4H39.4z M38,57.4c1.9,0,3.5-0.5,4.8-1.4
				c1.2-0.9,1.9-2.4,1.9-4.5c0-1.2-0.2-2.1-0.6-2.8c-0.4-0.7-1-1.3-1.7-1.7c-0.7-0.4-1.5-0.7-2.4-0.9c-0.9-0.2-1.8-0.2-2.8-0.2H27
				v11.5H38z M38.6,78.3c1.1,0,2.1-0.1,3-0.3c1-0.2,1.8-0.6,2.6-1c0.7-0.5,1.3-1.1,1.8-2c0.4-0.8,0.7-1.9,0.7-3.2
				c0-2.5-0.7-4.3-2.1-5.4c-1.4-1.1-3.3-1.6-5.7-1.6H27v13.5H38.6z"/>
			<path class="st0" d="M71.2,78.2c1.5,1.4,3.6,2.1,6.4,2.1c2,0,3.7-0.5,5.1-1.5c1.4-1,2.3-2,2.6-3.1h8.6c-1.4,4.3-3.5,7.4-6.4,9.2
				c-2.9,1.8-6.3,2.8-10.4,2.8c-2.8,0-5.3-0.4-7.6-1.3c-2.3-0.9-4.2-2.2-5.7-3.8c-1.6-1.7-2.8-3.6-3.6-5.9c-0.9-2.3-1.3-4.8-1.3-7.6
				c0-2.7,0.4-5.2,1.3-7.5c0.9-2.3,2.1-4.3,3.7-6c1.6-1.7,3.5-3,5.8-4c2.2-1,4.7-1.5,7.4-1.5c3,0,5.7,0.6,7.9,1.8
				c2.3,1.2,4.1,2.8,5.6,4.7c1.5,2,2.5,4.2,3.1,6.8c0.6,2.5,0.9,5.2,0.7,7.9H68.8C68.9,74.5,69.7,76.8,71.2,78.2z M82.3,59.4
				c-1.2-1.3-3-1.9-5.4-1.9c-1.6,0-2.9,0.3-3.9,0.8c-1,0.5-1.9,1.2-2.5,2c-0.6,0.8-1.1,1.6-1.3,2.5c-0.3,0.9-0.4,1.7-0.4,2.4h16
				C84.3,62.6,83.5,60.7,82.3,59.4z"/>
		</g>
		<rect x="65.7" y="41.2" class="st0" width="21" height="4.9"/>
	</g>
</g>
</svg>
