<?xml version="1.0" encoding="utf-8"?>
<!-- Generator: Adobe Illustrator 18.1.1, SVG Export Plug-In . SVG Version: 6.00 Build 0)  -->
<svg version="1.1" id="Layer_1" xmlns="http://www.w3.org/2000/svg" xmlns:xlink="http://www.w3.org/1999/xlink" x="0px" y="0px"
	 width="109px" height="109px" viewBox="0 0 109 109" style="enable-background:new 0 0 109 109;" xml:space="preserve">
<style type="text/css">
	.st0{fill:#FFFFFF;}
</style>
<path class="st0" d="M109,17.2C109,7.7,101.3,0,91.8,0H17.2C7.7,0,0,7.7,0,17.2v74.7c0,9.5,7.7,17.2,17.2,17.2h74.7
	c9.5,0,17.2-7.7,17.2-17.2V17.2z M101,90.6c0,5.8-4.7,10.4-10.4,10.4H17.4C11.7,101,7,96.3,7,90.6V17.4C7,11.7,11.7,7,17.4,7h73.2
	c5.8,0,10.4,4.7,10.4,10.4V90.6z"/>
<g>
	<rect x="32.1" y="56.5" class="st0" width="9.7" height="32.3"/>
	<circle class="st0" cx="36.9" cy="46.2" r="5.9"/>
	<path class="st0" d="M68.6,55.5c-5.7,0-8.8,2.8-10.7,5.7v-4.7h-9.6v32.4h9.6V74.3c0-2,0.3-4,1-5.9c0.2-0.6,0.4-1.1,0.6-1.3
		c1-1.2,1.5-2.4,4.5-2.4c3,0,5.2,1.6,5.4,5.1c0.2,3.4,0.2,19.2,0.2,19.2h10V72.7C79.5,72.7,81.6,55.5,68.6,55.5z"/>
</g>
</svg>
