<?xml version="1.0" encoding="utf-8"?>
<!-- Generator: Adobe Illustrator 18.1.1, SVG Export Plug-In . SVG Version: 6.00 Build 0)  -->
<svg version="1.1" id="Layer_1" xmlns="http://www.w3.org/2000/svg" xmlns:xlink="http://www.w3.org/1999/xlink" x="0px" y="0px"
	 width="362px" height="362px" viewBox="0 0 362 362" style="enable-background:new 0 0 362 362;" xml:space="preserve">
<style type="text/css">
	.st0{fill:#FFFFFF;}
</style>
<path class="st0" d="M892-472.8c0-31.6-25.6-57.2-57.2-57.2H587.2c-31.6,0-57.2,25.6-57.2,57.2v247.6c0,31.6,25.6,57.2,57.2,57.2
	h247.6c31.6,0,57.2-25.6,57.2-57.2V-472.8z M867-227.7c0,19.2-15.5,34.7-34.7,34.7H588.7c-19.2,0-34.7-15.5-34.7-34.7v-243.6
	c0-19.2,15.5-34.7,34.7-34.7h243.6c19.2,0,34.7,15.5,34.7,34.7V-227.7z"/>
<g>
	<rect x="637.8" y="-340.8" class="st0" width="32.3" height="107.7"/>
	<circle class="st0" cx="654" cy="-374.9" r="19.7"/>
	<path class="st0" d="M759.6-343.9c-19.1,0-29.4,9.2-35.7,18.9v-15.8h-32v107.9h32v-48.4c0-6.7,1.1-13.4,3.3-19.7
		c0.7-2.1,1.4-3.7,2-4.3c3.4-3.9,4.9-7.9,15-7.8c10.1,0,17.5,5.5,18.1,16.9c0.7,11.5,0.5,64,0.5,64H796v-54.6
		C796-286.8,802.9-343.9,759.6-343.9z"/>
</g>
<g>
	<path class="st0" d="M362,57.2C362,25.6,336.4,0,304.8,0H57.2C25.6,0,0,25.6,0,57.2v247.6C0,336.4,25.6,362,57.2,362h247.6
		c31.6,0,57.2-25.6,57.2-57.2V57.2z M337,302.3c0,19.2-15.5,34.7-34.7,34.7H58.7C39.5,337,24,321.5,24,302.3V58.7
		C24,39.5,39.5,24,58.7,24h243.6c19.2,0,34.7,15.5,34.7,34.7V302.3z"/>
	<g>
		<g>
			<path class="st0" d="M132.4,127.4c7.8,0,15,0.7,21.4,2.1s12,3.7,16.6,6.8c4.6,3.2,8.2,7.3,10.7,12.6c2.5,5.2,3.8,11.7,3.8,19.4
				c0,8.3-1.9,15.2-5.6,20.7c-3.8,5.5-9.3,10.1-16.7,13.6c10.1,2.9,17.7,8,22.7,15.3c5,7.3,7.5,16.1,7.5,26.4
				c0,8.3-1.6,15.5-4.8,21.5c-3.2,6.1-7.6,11-13,14.9c-5.5,3.8-11.7,6.7-18.7,8.5c-7,1.8-14.2,2.8-21.5,2.8H54.9V127.4H132.4z
				 M127.8,194c6.5,0,11.8-1.5,15.9-4.6c4.1-3.1,6.2-8.1,6.2-15c0-3.8-0.7-7-2.1-9.4c-1.4-2.5-3.2-4.4-5.5-5.8
				c-2.3-1.4-5-2.3-7.9-2.9c-3-0.5-6.1-0.8-9.3-0.8H91.1V194H127.8z M129.8,263.8c3.5,0,6.9-0.3,10.1-1c3.2-0.7,6.1-1.8,8.5-3.5
				c2.5-1.6,4.4-3.8,5.9-6.6c1.5-2.8,2.2-6.3,2.2-10.6c0-8.4-2.4-14.5-7.1-18.1c-4.8-3.6-11.1-5.4-18.9-5.4H91.1v45.2H129.8z"/>
			<path class="st0" d="M238.4,263.3c4.9,4.8,12,7.1,21.2,7.1c6.6,0,12.3-1.6,17.1-5c4.8-3.3,7.7-6.8,8.8-10.5h28.8
				c-4.6,14.3-11.7,24.5-21.2,30.6c-9.5,6.1-21,9.2-34.6,9.2c-9.4,0-17.8-1.5-25.3-4.5c-7.5-3-13.9-7.3-19.1-12.8
				c-5.2-5.5-9.3-12.1-12.1-19.8c-2.8-7.7-4.3-16.1-4.3-25.3c0-8.9,1.5-17.2,4.4-24.9c2.9-7.7,7.1-14.3,12.4-19.9
				c5.4-5.6,11.8-10,19.2-13.2c7.4-3.2,15.7-4.8,24.8-4.8c10.1,0,19,2,26.5,5.9c7.5,3.9,13.7,9.2,18.5,15.8
				c4.8,6.6,8.3,14.1,10.5,22.6c2.1,8.4,2.9,17.3,2.3,26.5h-85.9C230.8,250.9,233.4,258.5,238.4,263.3z M275.3,200.6
				c-3.9-4.3-9.9-6.5-17.9-6.5c-5.2,0-9.6,0.9-13,2.6c-3.5,1.8-6.2,4-8.3,6.6c-2.1,2.6-3.5,5.4-4.4,8.3c-0.8,2.9-1.3,5.5-1.5,7.8
				h53.2C282,211.2,279.3,204.9,275.3,200.6z"/>
		</g>
		<rect x="220.1" y="139.9" class="st0" width="70.1" height="16.3"/>
	</g>
</g>
<path class="st0" d="M362-472.8c0-31.6-25.6-57.2-57.2-57.2H57.2C25.6-530,0-504.4,0-472.8v247.6C0-193.6,25.6-168,57.2-168h247.6
	c31.6,0,57.2-25.6,57.2-57.2V-472.8z M337-227.7c0,19.2-15.5,34.7-34.7,34.7H58.7C39.5-193,24-208.5,24-227.7v-243.6
	c0-19.2,15.5-34.7,34.7-34.7h243.6c19.2,0,34.7,15.5,34.7,34.7V-227.7z"/>
<path class="st0" d="M162-383.9v27.9h-30v35h30v89h37c0,0,0-47,0-89h28.3l4.5-35H199c0-10,0-17.2,0-20.9c0-19.5,13.4-17.1,13.4-17.1
	H231v-32c0,0-3.3,0-32.2,0C162.8-426,162-383.9,162-383.9z"/>
</svg>
